# xmcd
#
# Track frame offsets: 
#        150
#        44351
#        72227
#        104634
#        157145
#        175627
#
# Disc length: 2703 seconds
#
# Revision: 3
# Processed by: cddbd v1.5.2PL0 Copyright (c) Steve Scherf et al.
# Submitted via: ExactAudioCopy v0.99pb4
#
DISCID=4f0a8d06
DTITLE=Horace Parlan - Up and Down
DYEAR=1961
DGENRE=Jazz
TTITLE0=The Book's Beat
TTITLE1=Up And Down
TTITLE2=Fugee
TTITLE3=The Other Part Of Town
TTITLE4=Lonely One
TTITLE5=Light Blue
EXTD=YEAR: 1961
EXTT0=
EXTT1=
EXTT2=
EXTT3=
EXTT4=
EXTT5=
PLAYORDER=
